<?xml version="1.0" encoding="UTF-8"?>
<svg xmlns="http://www.w3.org/2000/svg" version="1.1" viewBox="0 0 1500.8 1032.8">
  <defs>
    <style>
      .cls-1 {
        fill: #36f;
        hover; black; 
      }
    </style>
  </defs>
  <!-- Generator: Adobe Illustrator 28.7.1, SVG Export Plug-In . SVG Version: 1.2.0 Build 142)  -->
  <g>
    <g id="Layer_1">
      <path class="cls-1" d="M1270,648.4c-35.4,11.6-67.8,38.3-97.5,60.2-33.4,24.7-66,50.6-98.4,76.5-31.7,25.3-62.7,51.9-95.7,75.5-10.7,7.7-30.4,28.3-44.1,18.8-10.1-7-4.5-43.4-4.5-53.7-2.4-.8-5.9-2.1-8.6-3-65.5,56.9-137.4,105-221.8,128.4-83.2,23.1-173.9,21.3-257.2-1.1-72-19.3-155.9-63.2-199.2-126.4-20.7-30.3,2.6-77.7,14.6-108.9,14.5-37.5,36.5-66.6,59.1-99.2-65.3,11.9-137.8,15.1-201.6-6.2-40.4-13.5-159.8-63.7-97.6-120.9,21.9,40.8,44.4,68.7,89.4,85,40.2,14.5,90.8,15.5,133.3,16,24,.3,118.4-1.3,107.7-42.8-4.5-17.3-32-31.3-45.9-40.2-19.3-12.4-39.7-22.8-60.5-32.1-40.9-18.3-84.1-31.8-124.6-51-45.3-21.4-15.1-58.6,10.2-86.6,31.6-35.2,66.6-56.7,107.9-78.4,18.3-9.6,36.5-19.2,57.2-22.4,28.2-4.4,35.1,13.4,50.3,33.9,32.1,43.3,64,86.8,96.5,129.8,31.2,41.3,69.2,80.6,96.4,124.4,28.5-38.2,52.7-78.9,78.3-119.1,21.3-33.7,57-70.5,55.2-112.7-1.3-32.4-12.7-64.6,25.9-77.8,19.2-6.6,36.5,0,55.3-2.8,19.9-3,27.1-24.5,37.7-40.3,47.2-70.9,116.9-130.2,198.7-155.5,42.4-13.1,90-21.1,134-11.9,17,3.5,40.9,8.8,45.7,27,4.9,18.7-6.7,48-12.8,65.4-33.6,94.4-101.6,162.2-189.9,205.3,15.4,37.3,55.3-5.5,73.7-18.9,29-21,57.5-43,80.9-70.4,41-48,66.2-107.6,76.8-169.4,1.2,0,2.4,0,3.6,0,14.2,33.6,12.8,81,17.6,117.2,5.3,40.7,10.6,81.5,13.8,122.5,3.2,40.4,4.7,80.9,7.4,121.2,2.2,33.1,9.5,61.2-10.8,90.4-41.9,60.1-110.5,98.3-156.7,154.9-22.3,27.4-42.5,56.4-64.7,83.9-23.1,28.6-25.8,56.7-29.4,92.3,77.2-50.4,139.4-118.9,219.6-166,18.1-10.6,92.5-64.8,111.5-36.9,9.9,14.5-2.6,45.8-6.1,61.5-6,26.7-14.7,51.9-23.4,77.8,41.8-27.2,84.3-52.9,128.9-75.4,12.8-6.5,33.2-20.5,47.1-9.6,14,11,11.6,41.1,13.7,57,6.4,49.3,14.6,98.3,21.3,147.5,3.6,26,6.6,52.2,8.7,78.4,1.3,16.7,8.9,47.4-1.4,62.2-6.4,9.2-22.9,15.3-31.8,7.5-11.8-10.3-11.1-43.6-13.6-58.4-8.7-52.6-16.9-105.3-25.3-158-3-18.9-3.6-93.2-26.4-92.2-13,.6-39.9,28.7-51.1,36.8-23.5,17-47.1,33.9-70.7,50.7-19.4,13.8-42.3,34.2-65.8,40.6-26.4,7.2-3.6-33,1.6-46.5,19.7-50.6,43.6-101.3,57.5-153.9h0ZM542,933.6c51.6,3.4,114.1-10.6,162.2-29.2,24.2-9.3,40.1-16.8,40.5-44,.4-25.8-1.9-51.5-7.3-76.7-35.2-163.8-238-294.6-378.3-156.3-30.4,29.9-58.5,71.2-74.1,111-6,15.2-16.5,41.9-12.2,58.4,3.6,13.8,25.7,32.2,35.9,42.5,58.9,59.8,152,86.3,233.3,94.3h0ZM499,529.7c-58.1-78.3-118.4-155.2-178.4-232-10.9-13.9-16.8-24-35.4-22.3-18.1,1.7-40.3,17.5-55.2,27.2-34.4,22.4-72.8,50.8-97.6,83.7,52.4,24.2,105.8,46.8,157.4,72.5,37.8,18.8,96.5,44.6,101.2,92.8,36.1-7.4,71.5-14.6,107.9-22h0ZM792.2,219.2c.9,1.3,1.8,2.7,2.7,4,19.8,5.1,38.6,11.9,58,18.6,19.7,6.9,26,7.7,42.9-5.3,30-23.2,61.7-41.4,95-59.5,32.8-17.8,63.1-34.5,98.7-45.3,31.7-9.6,42.1-40.9,48.6-72.1,3.9-18.5-2.6-18.9-19.8-22.3-22.2-4.4-44.4-5.5-67-4.7-36.6,1.4-73.2,9.9-104.1,30.3-29.7,19.7-60.1,42.8-86.6,66.7-28.3,25.5-46.7,58.7-68.3,89.6h0ZM735.9,262.7c-13.3.6-22.1-2.2-24.9,10.8-2.8,13.1,9.2,42.2,12.1,55.5,7.2,32.9,11.7,67.9,21.9,100,10.3,32.5,41.6,42,70.6,53.7,31.6,12.7,46.6,8.8,69.1-17.1,21.4-24.7,37.9-52.9,54.5-81,5.7-9.7,16.1-20.7,12-32.3-4.1-11.5-27-22.5-36.6-28.3-52.4-31.2-117.1-58.8-178.7-61.4h0ZM676.5,360.1c-26.5,35.3-49,73.9-72.8,111.1-8.5,13.4-36,43-37.1,58.3-1.5,20,17,21.9,32.3,17.7,37.6-10.4,76.1-45.9,104-72.1,19.2-18.1,12.6-28.1,2.8-51.5-9-21.5-19.3-42.4-29.1-63.5h0ZM946.6,790.1c23.8-20.2,29.5-28.8,28.9-61-.7-32.9-1.2-65.8-1.8-98.6-.6-34.8-1.1-69.6-1.7-104.5-.5-31.1,3.5-66.8-6.1-96.4-17.2,25-13.6,57.1-14.5,86.9-.9,30.2-1.4,60.4-2,90.7-1.3,60.6-5.9,122.3-2.8,182.9h0ZM646.3,556.1c17.5,15,55.7,19.9,77.9,26.2,17.3,4.9,51.7,17,69.3,7.6,37.6-20.1-72.3-62.5-82-74.3,17.5-13.3,37.7-7.9,58.4-3.7,12.8,2.6,52,24.7,59.7,9.7-19.8-16.8-112.5-47.1-130-14.3-16,29.9,73.1,48.5,86.3,68-21.8,7.6-54.1-4.4-76.4-9.5-20.4-4.6-43.8-24.1-63-9.8h0Z"/>
    </g>
  </g>
</svg>