<?xml version="1.0" encoding="UTF-8"?>
<svg id="Layer_1" xmlns="http://www.w3.org/2000/svg" viewBox="0 0 953.2 1222.07">
  <path d="M602.69,1138.97c-6.52-4.26-9.56-7.64-10.97-12.45,13.49,15.3,36.8,20.3,56.15,23.06,21.3,3.04,42.75-.4,62.2-9.53,41.95-19.7,66.35-56.68,75.28-101.34,9.04-45.21,1.74-96.89-33.83-129.02-33.41-30.17-80.52-41.86-119.54-15.11-19.01,13.04-29.48,32.55-29.93,55.65-.25,12.81,2.33,28.03,9.87,38.74,3.95,5.61,21.47,13.89,19.75,21.33,1.51,1.38,2.8,2.54,4.53,4.12-11.11,3.93-27.51-16.31-33.45-23.32-8.64-10.2-14.55-22.84-23.33-32.73-10.13,6.67-17.29,15.45-28.6,20.97-11.8,5.76-24.62,9.59-37.14,13.46-27.88,8.6-56.79,13.9-86.05,12.11-44.43-2.73-112.65-27.2-121.81-78.32,6.75-.81,13.98,18.72,17.73,23.59,7.23,9.41,16.2,17.47,26.06,24.04,21.1,14.05,46.41,21.91,71.53,24.36,55.08,5.36,111.76-12.31,157.26-42.36-77.6-59.53-174.18-90.82-250.74-151.84-.28.19-.55.38-.83.57,1.29,12.83,6.31,24.89,6.93,38.16.69,14.85.36,30.2-4.15,44.48-3.49,11.08-9.16,21.54-16.73,30.36-8.95,10.42-18.27,14.29-30.64,19.1,7.78-12.52,13.69-24.1,6.28-38.93-6.75-13.52-24.37-18.13-38.38-19.32-34.57-2.92-58.42,23.29-68.38,53.96-12.25,37.72-2.56,72.74,18.69,105.05,10.02,15.24,21.52,30.43,34.37,43.4,14.77,14.91,29.7,24.62,27.31,47.53-7.72-19.04-17.06-31.58-32.83-45.04-15.01-12.82-30.48-25.03-46.04-37.17,4.18,17.62,7.87,34.05,5.75,52.31-2.1,18.13-7.35,36.18-14.45,52.96-6.35,15.01-14.28,29.62-25.76,41.34-12.43,12.69-28.05,20.48-43.42,28.94-.24-.31-.48-.62-.72-.93,15.49-10.07,32.23-17.57,44.89-31.46,12.42-13.63,20.67-30.92,27.01-48.08,6.59-17.86,11.21-37.16,11.22-56.29.01-20.77-7.34-35.77-14.91-54.38l.89-.62c1.86,2.37,3.22,4.43,4.76,6.98.26-1.8.42-2.91.63-4.31,5.65,3.3,10.6,12.4,16.31,16.73,8.02,6.09,16.21,12.15,24.48,17.9-31.7-42.56-61.17-87.74-40.31-142.46,8.15-21.38,22.31-41.46,45.06-48.6,25.86-8.11,46.38,3.79,67.81,17.03l-.44.95c-.89-.24-1.78-.48-3.23-.87,6.66,10.03,11.08,20.15,7.04,32.55,26.16-19.58,33.7-50.9,32.86-82.1-.36-13.39-.81-35.18-11.06-45-11.26-10.78-28.04-18-40.49-27.74-24.17-18.91-46.37-41.06-62.86-67.07-16.28-25.68-24.74-53.19-30.86-82.7-10.71,7.55-22.39,12.19-35.15,15.08-1.03,6.05-2.45,39.69-10.03,40.38-6.99-2.78,2.35-32.97,3.05-39.4h-19.7c11.59,49.32,3.9,105.92-41.29,136.33,15.7-3.43,29.83-10.85,44.22-17.72l.9,1.15c-7.01,7.87-17.66,11.75-26.35,17.56-8.39,5.61-16.2,12.05-23.36,19.15-15.46,15.35-28.04,33.83-39.48,52.27-25.86,41.7-42.53,86.8-26.7,135.55,14.81,45.61,48.78,82.8,77.11,120.47,13.41,17.84,27.84,35.8,34.43,57.5,7.7,25.4-1.67,42.41-19.93,59.72-.3-.22-.59-.45-.89-.67,12.86-16.19,23.56-28.71,19.41-50.71-4-21.19-17.26-39.1-29.94-55.92-27.32-36.25-59.69-72.38-78.09-114.31-19.04-43.4-13.55-87.57,7.65-128.96,9.89-19.31,21.9-37.82,34.77-55.26,13.32-18.07,29.15-30.01,46.57-43.71-10.32,3.15-97.76,31.57-90.47,7.32,1.59,9.97,20.71,5.11,27.19,4.32-4.36-.45-8.71-.9-13.07-1.35.03-.14.06-.28.09-.42,35.31,0,61.43-9.83,81.03-40.68,18.27-28.77,22.99-70.54,12.83-103.05-26.44-7.81-50.61-21.1-62.36-47.44-12.16-27.25-11.96-62.5-5.64-91.16,5.86-26.57,19.18-57.98,44.18-71.92,13.49-7.52,27.02-5.29,41.75-4.28,15.79,1.08,31.83-.29,47.63-.78,3.25-26.68,8.31-51.54,22.81-74.65,14.22-22.68,33.48-39.32,56.41-52.67-10.02-55.8-9.54-115.36,20.8-165.44,14.1-23.27,33.8-43.23,54.85-60.27,20.5-16.6,44.84-36.09,71.48-40.74-72.77-9.27-137.03,43.75-185.7,91.53-25.78,25.32-47.06,55.77-74.92,78.88-13.56,11.25-29.13,19.92-46.33,24.06-19.14,4.61-37.65,1.31-56.97,1.31,2.7,13.56,24.3,28.05,34.55,35.48,18.25,13.23,39.02,20.02,61.31,22.62-9.51,7.38-20.12,13.42-29.11,21.4-9.92,8.8-18.44,19.36-26.43,29.9-7.62,10.06-15.01,20.8-19.43,32.7-5.06,13.62-5.06,28.11-5.93,42.43.31.11.62.23.93.34,8.6-10.61,17.75-22.03,28.24-30.86-8,17.92-11.74,36.33-9.82,55.31-10.84-10.63-.31-28.28-.52-40.69-6.46,6.8-13.89,13.45-17.4,22.38-1.96,4.99-.07,24.13-7.3,23.22-3.44-15.71.4-35.5,1.6-51.52,1.25-16.77,6.76-30.2,15.9-44.25,8.11-12.47,17.18-24.34,27.68-34.9,10.71-10.78,22.36-15.45,34.62-23.56-28.63-1.84-51.31-13.81-72.61-32.79-4.84-4.32-9.43-8.91-13.62-13.88-3.73-4.43-6.49-10.83-11.19-14.19-10.08-7.22-25-4.17-32.55-15.66,8.75,7.12,19.65,6.75,30.79,9.98-2.68-8.7-4.86-16.23-3.11-24.21,1.79,8.71,3.87,17.28,9.19,25.23,36.99,2.94,71.27,3.4,101.98-20.66,28.12-22.03,49.16-52.66,74.49-77.68,25.44-25.14,53.47-48.32,83.73-67.46,15.04-9.51,31.11-17.1,48.2-22.16,18.93-5.61,37.85-5.24,57.4-5.24-1.38-.99-2.56-1.84-3.74-2.69.15-.33.3-.66.44-.98,5.94,2.16,11.88,4.32,17.8,6.48,19.88,16.49,41.53,30,60.62,47.82,20.64,19.26,39.9,39.96,58.22,61.43,36.21,42.44,69.09,87.06,93.86,137.23,23.47,4.99,44.28,15.97,63.03,32.63,19.64-84.62-8.54-173.23-71.35-232.38-28.99-27.3-64.4-48.79-102.64-60.23-20.31-6.08-42.08-9.48-63.29-9.48-10.83,0-21.83.87-32.46,2.93-5.11.99-25.62,9.78-28.17,7.78,37.3-21.48,88.46-15.88,127.71-3.48,39.73,12.55,75.85,35.42,105.63,64.38,27.97,27.19,50.91,60.99,62.33,98.53,6.82,22.42,10.3,46.16,11.34,69.53.53,11.95.64,23.97-.64,35.87-1,9.3-5.85,20.78-4.73,29.89,27.44,29.37,40.15,64.48,40.64,104.44,14.74,2.15,30.01,1.74,44.88,3.77,7.41,1.01,14.9,2.77,22.39,2.25,6.37-.44,12.51-1.91,18.95-1.85,26.1.26,39.87,15.6,57.37,32.15-9.58-23.26-20.88-45.28-43.33-59.4.38-.43.76-.85,1.14-1.28,26.52,16.16,59.59,22.35,90.39,16.21-54.18-20.68-89.74-59.46-110.86-113.26.99,19.54.87,38-1.65,57.42-.39-.03-.78-.06-1.16-.09-2.3-9.06.22-21.64-.14-31.19-.43-11.35-1.47-22.67-3.08-33.91-3-20.93-8.01-41.53-14.58-61.62-13.13-40.14-30.34-78.09-57.63-110.68-26.18-31.26-59.17-56.8-95.46-75.3-17.76-9.06-36.4-16.35-55.58-21.79-21.98-6.23-45.11-5.73-66.87-11.76,82.35-7.1,169.17,44.94,220.83,105.74,28.95,34.07,47.23,74.8,60.31,117.25,6.69,21.69,10.16,44.27,18.79,65.32,7.21,17.6,16.27,34.39,27.79,49.56,12.02,15.83,26.53,29.69,42.9,40.97,8.16,5.62,16.77,10.59,25.67,14.95,4.83,2.36,10.21,5.51,15.69,5.78,4.23.21,11.11-4.98,14.04-3.39-2.83,1.93-5.38,3.67-8.45,5.77,1.96.23,3.56.42,5.16.61.03.19.06.38.1.57-29.5,7.6-56.8,2.97-86.33-2.25,29.17,37.74,46.79,89.01,31.94,135.78-14.2,44.73-47.4,78.1-94.03,85.71.53,5.37,6.84,30.15-.64,31.58-6.91-1.62-4.25-25.82-5.42-31.49-11.79-5.73-28.93-10.46-28.01-26.68,21.48,6.54,45.6-5.23,60.99-19.98,16.95-16.25,21.33-41.5,15.62-63.92-4.72-18.5-17.58-34.52-35.73-41.1-9.23-3.34-19.59-4.54-29.35-3.88-12.36.84-11.15,5.23-17.66,13.25,0,50.36,8.18,104.33-5.83,152.97-13.44,46.66-41.81,90.6-73.28,127.12-14.73,17.08-31.17,32.71-49.42,46-9.44,6.88-19.34,13.13-29.63,18.65-11.41,6.13-15.11,9.23-19.09,21.85-13.7,43.41-13.61,102.01,22.97,134.59-14.82-42.76-5.84-82.83,37.76-102.58,38.44-17.42,81.51-1.76,111.04,25.45,60.55,55.82,46.03,174.28-18.26,221.88-16.53,12.24-36.4,20.6-56.56,24.54-27.26,5.33-52.16-3.36-77.03-13.54-.45-.46-.91-.92-1.36-1.38ZM285.36,347.7c-.42.39-.85.77-1.27,1.16-13.08-6.28-16.25-37.87-19.89-50.29-40.23,18.74-68.3,63.34-73.85,106.54-5.07,39.44,6.19,78.05,39.63,101.8,29.99,21.31,80.93,33.9,115.95,19.1,34.74-14.68,63.2-51.11,77.08-85.32,15.78-38.89,10.19-81.1-21.16-110.43-29.25,3.48-54.49-8.71-64.67-37.67-10.86-4.46-32.34-5.91-42.29-2.7-4.44,19.01-9.46,38.13-9.52,57.79ZM176.87,431.37c.37,0,.74,0,1.11,0,8.09,30.6,4.5,65.41,4.11,96.76-.18,14.41-3.19,29.25-1.71,43.58,1.53,14.83,4.51,29.63,6.62,44.39,1.34-.33,2.21-.55,3.08-.77-5.69,5.73.93,22.1,2.6,28.71,2.29,9.04,5.15,17.9,8.68,26.54,6.92,16.92,16.27,32.74,27.38,47.24,12.24,15.98,26.56,30.33,41.96,43.26,13.94,11.7,30.51,26.49,48,32.1,21.31,17.48,50.16,28.22,76.01,37.03,26.94,9.18,55.14,14.71,83.67,14.45,24.73-.22,49.74-3.81,74.22-7.08,24.34-3.25,44.02-11.61,64.63-25.02,39.63-25.79,70.23-62.43,95.22-102.14,13.19-20.95,24.92-42.88,34.01-65.93,4.32-10.95,8.49-22.29,11.09-33.79,2.63-11.61.81-22.83-.13-34.55-4.12-51.36-1.3-104.75,3.75-155.89-6.85-.44-12.83-.82-18.88-1.21-4.19,32.71-12.98,62.92-38.25,85.89-21.95,19.95-50.82,26.27-79.81,23.67-29.86-2.67-63.88-12.63-81.48-38.8-8.79-13.07-19.62-24.64-27.7-38.24-8.21-13.83-13.29-28.8-18.82-43.81-20.51-7.72-40.38-2.24-60.22,3.68-11.86,43.51-32.29,81-69.41,108.37-37.76,27.83-88.18,25.07-128.65,5.84,27.2,9.9,54.85,12.58,83.24,7.98-32.74.25-66.44-5.19-93.71-24.55-12.75-9.06-23.92-21.19-31.75-34.76-8.54-14.8-9.02-30.05-12.35-46.22-8.8.3-17.16-.65-25.69,1,6.55,6.08,12.5,11.6,19.17,17.79v-15.53ZM436.19,407.39c19.28-7.92,38.43-9.85,58.6-5.63-5.29-37.81-2.85-74.47,27.37-101.62,29.59-26.58,68.72-32.72,106.99-28.08-46.54-90.98-116.51-169.52-195.69-233.31-31.07,33.57-63.02,72.28-83.2,113.53-10.41,21.28-18.84,43.69-27.88,65.57-8.75,21.16-19.28,43.02-25.15,65.17,13.27.95,25.85,1.85,38.97,2.79,1.93-12.02,6.47-24.08,15.64-32.75,7.99-7.56,24.46-2.97,33.05,1.57,12.43,6.57,19.65,17.58,24.18,30.57,5.46,15.66,3.64,27.35-3.83,41.81,21.66,21.49,33.99,49.58,30.98,80.38ZM671.8,373.1c8.78-14.46,23.61-51.83,24.8-62.88-16.61-15.39-35.69-26.46-58.96-31.9,6.08,14.93,11.78,28.91,17.48,42.88-.31.13-.62.26-.93.39-7.41-14.91-14.82-29.81-22.07-44.42-38.18-7.37-81.73.73-110.04,28.88-11.82,11.75-19.78,26.64-23.74,42.78-2.83,11.55-3.51,23.35-2.63,35.18.57,7.61.21,18.68,7.25,23.52-1.03,1.38-1.75,2.35-2.51,3.36,10.14,39.12,34.96,69.69,67.09,93.35,30.64,22.56,80.08,28.02,114.58,10.9,73.48-36.48,69.53-148.64,18.04-201.28-7.35,22.87-16.42,44.22-28.17,64.43.1,1.24.2,2.49.32,3.94-.91-.29-1.59-.51-2.15-.69-1.5,1.69-2.95,3.32-4.4,4.95-.41-.29-.81-.58-1.22-.87,5.46-9.81,4.14-13.17.44-23.84-3.34-9.62-6.6-19.26-9.92-28.89.35-.11.69-.21,1.04-.32,6.5,12.89,10.73,26.99,15.71,40.53ZM291.21,284.17c16.24-46.55,34.07-94.07,56.31-138.14,21.21-42.04,53.11-73.53,84.28-107.87-5.48-3.6-12.15-10.1-19.03-10.11-5.86,0-14.37,5.19-19.3,7.88-12.97,7.08-25.28,16.07-37.17,24.81-23.19,17.05-45.39,36.64-62.01,60.32-35.02,49.89-38.83,112.23-27.7,170.34,8.6-2.53,16.57-4.87,24.62-7.24ZM801.42,619.62c49.89-6.02,86.61-52.73,93.57-101.15,6.35-44.23-24.61-105.41-77.67-94.12-1.32,1.19-2.48,2.25-3.87,3.5-17.64-8.19-37.66,20.23-47.61,30.36-.45-.37-.9-.75-1.35-1.12,5.52-14.68,18.25-23.39,29.81-33.04-10.02-1.21-20.17-2.44-30.71-3.72-3.46,17.96-1.56,37.68-1.83,55.95,11.78-14.88,37.75-9.07,52.61-1.99,18.38,8.76,30.05,27.3,33.14,47.1,3.59,23-2.01,45.81-19.96,61.19-8.08,6.92-17.26,12.76-27.28,16.44-5.28,1.94-10.77,3.29-16.4,3.67-4.31.3-10.65-1.71-14.5-.24-2.07,7.8,20.39,19.31,25.85,15.57,1.72-3.76-1.44-8.93,3.22-12.35,3.41,4.28,1.96,9.07,2.98,13.94ZM58.21,491.15c9.66-19.77,26.75-35.45,47.91-42.06,17.09-5.34,45.44-5.36,59.28,8.07-5.65,0-12.71-5.59-18.53-7.08-6.92-1.77-14.1-2.3-21.21-1.81-11.54.8-22.73,4.27-32.74,10.06-18.87,10.93-32.58,29.66-36.27,51.26-2.2,12.9-4.5,24.2-3.59,37.33.96,13.81,2.38,27.85,8.16,40.6,8.31,18.36,32.62,42.53,54.5,42.53.12-1.18.21-2.04.37-3.56,1.28,2.01,2.14,3.35,2.87,4.5,6.61,2.46,17.03,3.1,23.04,1.47,2.71-5.11,1.19-12.04,6.23-16.59,4.29,3.3,1.62,11.61,1.1,15.88,12.47-2.06,23.06-6.56,33.76-12.26-.8-5.9-1.56-11.52-2.27-16.71-45.32,7.05-85.78-22.79-90.99-69.71-2.55-22.96,7.45-46.82,25.91-60.78,18.42-13.94,38.92-13.79,60.84-12.03.54-13.32-9.68-18.99-20.21-25.82-10.98-7.12-22.46-4.84-35.06-4.84-1.12-1.6-2.02-2.89-3.06-4.37-33.79.2-52.87,37.52-60.04,65.93ZM177.34,464.15c-40.96-14.67-84.82,19.33-84.99,61.2-.18,45.38,42.58,85.91,88.18,74.63-.56-9.18-1.07-17.43-1.58-25.76-.99.35-1.67.59-3.07,1.08-2.64-17.02.56-35.79.97-52.98.47-19.4.49-38.78.49-58.18ZM267.86,296.95c2.24,9.75,4.93,19.35,7.67,28.98,1.5,5.28,2.35,17.89,8.08,20.46,1.96-18.91,3.88-37.39,5.85-56.28-7.63.89-14.47,3.24-21.6,6.83ZM568.05,507.03c-8.29-6.83-16.59-13.67-24.88-20.5,5.32,10.46,14.54,16.2,24.88,20.5Z"/>
  <path d="M836.54,637.72c-7.73,43.38-17.76,90.28,1.34,132.33,7.47,16.45,19.98,30.9,36.3,39.07,8.56,4.28,18.78,6.91,28.38,5.44,8.97-1.37,9.99-7.13,16.56-11.27,0,34.9-51.42,41.5-76.49,39.91,28.17,23.96,51.73,49.72,60.31,86.86,7.07,30.61,9.54,78.71-11.68,104.69-4.08,4.99-9.32,7.22-13.62,11.68-5.39,5.59-9.3,14.52-12.39,21.49-7.13,16.07-12.7,36.24-5.45,53.19,6.59,15.42,23.3,24.49,39.42,26.35,7.24.83,14.49.48,20.99-3.01,3.09-1.66,12.13-13.36,14.32-13.36,1.24,12.3-18.35,23.17-27.56,26.82-15.71,6.23-32.78,6.33-49.15,2.9-25.76-5.41-65.35-21.6-68.16-52.23,3.08,1.76,4.37,9.19,6.6,12.47,2.76,4.06,6.2,7.51,9.93,10.68,9.6,8.15,21.09,14.59,32.77,19.18,24.22,9.52,53.55,12.37,76.4-2.13-32.55,3.56-64.19-16.01-60.36-51.49,1.72-15.88,8.17-31.63,16.62-45.07,9.09-14.46,21.5-21.98,26.27-39.11,8.93-32.04,6.76-73.89-6.84-104.36-6.99-15.66-17.12-29.74-29.06-41.99-6.17-6.34-12.56-12.84-20.04-17.65-4.32-2.78-15.07-5.29-15.96-11.11,8.34,0,16.52,3.55,25.01,3.94,7.61.35,15.23-.44,22.6-2.34,14.24-3.67,32.33-11.68,39.58-25.27-20.06,4.13-36.14,2.2-52.66-10.87-14.38-11.38-24.31-26.86-29.75-44.28-12.09-38.71-6.89-83.68,5.45-121.67.1.07.21.14.31.21Z"/>
  <path d="M602.69,1138.97c.45.46.91.92,1.36,1.38,11.87,12.98,32.91,17.6,49.52,20.23,19.61,3.09,39.28,2.94,58.69-1.37,16.2-3.6,31.63-9.31,44.26-20.41,14.59-12.82,21.83-30.95,33.42-46.14.3.18.6.35.91.53-8.73,16.69-17.34,35.1-31.66,47.78-13.37,11.84-30.46,18.32-47.75,21.87-20.23,4.15-41.43,3.98-61.67-.08-5.98-1.2-51.29-13.7-47.07-23.79Z"/>
  <path d="M285.36,347.7c8.91-7.86,19.33-12.8,30.78-15.98-39.38,18.74-58.85,49.59-57.15,93.38.53-2.73,1.06-5.46,1.59-8.19.19.02.38.03.58.05,0,25.46,9.82,47.57,36.38,54.38,30.87,7.91,56.99-5.81,73.54-32.1,14.78-23.49,19.56-56.04,3.72-80.18-16.02-24.4-46.66-28.29-70.69-13.21,7.32-15.73,29.22-17.5,44.13-13.9,16.1,3.89,29.49,16.1,36.42,30.94,17.45,37.33-1.76,76.49-31.65,100.39-25.77,20.6-69.78,17.84-88.38-11.51-21.09-33.3-5.71-76.74,19.48-102.9.42-.39.85-.77,1.27-1.16Z"/>
  <path d="M468.84,741.95c-49.17.3-101.54-15.55-133.16-55.24-14.38-18.05-26.71-41.82-25.98-65.38.98-31.69,37.16-20.23,58.29-17.1,29.54,4.37,58.61,9.15,88.58,7.13,30.36-2.04,60.14-8.42,89.95-14.24,22.59-4.41,55.58-14.75,74.12,4.23,17.92,18.35,11.85,46.73.77,66.9-27.75,50.48-97.46,75.69-152.56,73.71ZM388.56,671.11c19.09,2.66,37.17,6.68,56.61,6.98,19.69.31,39.41-1.28,58.83-4.55,36.73-6.18,71.43-17.91,101.88-39.82,1.34-12.81,3.04-25.76-2.87-38.33-24-2.63-48.27,4.49-71.68,8.93-22.23,4.22-44.54,8.6-67.11,10.59-22.01,1.94-43.81.2-65.72-2.13-22.49-2.39-45.58-8.8-68.15-8.8-1.48,14.59-3.32,36.92,9.81,47.22,13.05,10.24,31.2,12.98,46.93,16.74.46.95,1,2.08,1.54,3.22-16.03,3.93-32.76,6.12-46.07,18.11,31.76,36.87,84.03,50.88,131.15,49.2,25.25-.9,50.69-6.19,74.25-15.32,19.82-7.68,44.54-20.07,56.58-38.44-11.48-9.82-25.65-24.77-42.5-23.85-9.37.51-19.45,5.89-28.58,8.23-9.07,2.33-18.25,4.24-27.49,5.8-40.22,6.81-77.95,6.34-117.41-3.78Z"/>
  <path d="M547.04,526.04c-12.01-33.76-38.62-60.6-75.21-65.47-20.24-2.69-36.8,1.92-51.73,15.9-7.02,6.57-13.45,14.02-18.76,22.04-3.07,4.64-8.28,21.32-12.08,22.73,7.07-33.7,41.63-66.38,76.83-63.35,19.44,1.67,37.27,8.21,52.08,21.08,10.63,9.24,31.99,31.09,29.44,46.89l-.58.18Z"/>
  <path d="M491.31,576.16c.67,1.62,1.09,2.64,1.45,3.49-2.16,8.66-34.49,12.37-48.41,5.46,15.29,0,30.07,1.11,43.95-6.6,4.69-10.88,8.37-19.92,18.84-26.53,9.3-5.88,22.31-12.97,33.13-7.51-21.38,3.18-38.96,11.5-48.95,31.7Z"/>
  <path d="M440.96,585.07c-7.31-7.94-10.21-18.49-18.67-26.12-9.29-8.38-20.44-13.02-31.9-17.54,15.72-3.45,50.32,25.99,50.56,43.67Z"/>
  <path d="M622.45,367.99c-.45,20.65-13.42,40.57-34.11,46.09-22.5,6.01-46.45-4.68-47.3-29.62-.77-22.52,20.03-38.12,40.11-43.05,9.18-2.26,23.34-3.72,31.43,2.34,7.59,5.68,8.29,15.76,9.88,24.24Z"/>
  <path d="M686.57,422.29c-.74,2.49-1.23,4.14-1.69,5.72-6.01,4.08-21.09-3.05-27.75-4.21-9.95-1.74-20.12-2.64-30.22-2.19-20.26.91-39.54,8.02-56.08,19.66,19.63,0,39.05.67,58.54,3.21,10.02,1.31,20,3.01,29.9,5.03,5.92,1.21,16.62,1.3,19.85,7.11-2.5,5.92-22.8-1.18-27.4-1.94-10.87-1.79-21.87-3.1-32.83-4.21-11-1.11-21.99-1.65-33.05-1.89-9.26-.2-23.51,2.13-31.75-2.8-2.1-7.36,15.63-16.8,20.56-19.73,11.61-6.89,24.45-11.56,37.74-13.86,23.65-4.09,53.97-4.56,74.18,10.1Z"/>
  <path d="M318.19,466.01c-30.02-.99-47.39-25.01-45.3-53.72,1.72-23.56,19.52-53.52,44.38-58.31,28.4-5.46,51.08,19.85,52.96,46.5,1.18,16.77-8.92,29.7-18.09,42.76-9.06,12.91-18.68,19.28-33.95,22.76Z"/>
  <path d="M764.87,467.76c20.25-26.27,59.32-30.58,88.32-17.15,14.71,6.82,23.96,17.54,29.59,32.61,4.61,12.32,14.39,36.14,6.34,48.52-5.06-15.07-4.86-31.57-10.49-46.96-4.81-13.15-12.36-23.03-25.09-29.33-31.36-15.53-60.9-5.92-87.68,13.08l-1-.77Z"/>
  <path d="M833.77,599.58c.08,11.2-17.19,13.05-17.7,1.66-.5-11.18,17.61-14.41,17.7-1.66ZM825.89,592.94c-8.87.09-10.78,14.61-.75,14.25,8.56-.31,9.9-14.34.75-14.25Z"/>
  <path d="M98.97,594.61c11.27-6.02,23.03,10.11,11.45,16.97-13.72,8.14-15.77-8.48-11.45-16.97ZM108.13,595.81c-5.72,1.48-17.68,7.14-7.78,14.04,9.68,6.75,18.03-7.44,7.78-14.04Z"/>
</svg>