<?xml version="1.0" encoding="UTF-8"?>
<svg xmlns="http://www.w3.org/2000/svg" version="1.1" viewBox="0 0 1265.7 1147.2">
  <defs>
    <style>
      .cls-1 {
        fill: #2c51d7;
      }
    </style>
  </defs>
  <!-- Generator: Adobe Illustrator 28.6.0, SVG Export Plug-In . SVG Version: 1.2.0 Build 709)  -->
  <g>
    <g id="Layer_1">
      <path class="cls-1" d="M626.3,511.8c15.6-30.9,3.8-65.4-4.6-96.7-10.7-41.2-21-85.5-12.5-127.4,8.3-38.1,29.1-71.9,52.8-102.5,5.3-6.3,7-6.4,6.1-.1-.6,4.9-2.6,13.8-2.9,22.1-.4,7.6.3,15.2,1.8,22.6,2.9,14.9,9,29.5,15.6,43.3,35.3,70.2,71.4,139.9,106.8,210.1,13.3,26.4,25,53.4,35,81.2,28.7,79.3,48.7,142.8,23.7,227.5-9.5,32.9-22.9,64.9-44.6,91.6-28.9,35.1-68.8,61.9-113.1,72.4-69,15.1-146.7-1-199.2-50.4-51.8-48.2-78.6-121.3-80.5-191.8-.2-58,18.2-115.9,47.3-165.6,8.9-14.8,19-28.9,30-42.2,11.1-13.1,22.8-26.1,36.5-36.4,3.7-2.6,20.3-14.9,23.2-10,.5,1.6-.2,3.3-.7,5-1.7,4.8-6.2,12.3-8.6,20-3,9.5-3.5,19.9-1.1,29.6,7.6,33.6,42.6,39.1,68.7,21.9,8.7-5.9,15.4-14.3,20.1-24v-.2ZM625.3,593.9c-55.3,0-107.9,30.2-138.1,74.3-7.4,11-16.9,26.2-17.6,38.6-.5,13.5,14,18.7,21.9,27.3,8.8,9.2,10.1,22.2,11.7,34.7,1.7,18.3,6.2,36,15.8,51.5,24.2,39.5,71,62.4,116.9,62.6,34.6.5,67.5-14.7,93-37.4,6.5-5.7,12.1-11.6,19.1-15.3,4.9-2.6,10.3-3.9,15.7-3.5,7.4.4,16.8,4.5,22.1,5.8,1.9.4,4.6,1.1,5.3-.9-.4-10.2-24.4-27.2-21.7-40.7,2.4-15.4,40.3-21.5,48.8-33.7,3.6-7.4-19.6-8.3-25-10.5-4.8-1.4-9.4-3.6-13-6.9-5.1-4.7-7.6-10.6-9.5-17.6-12.8-72.6-69.9-130.3-145.1-128.4h-.2Z"/>
      <path class="cls-1" d="M583.2,675.3c10.5-2.5,19.8,6.2,26.6,14,7.9,8.9,17.1,22.1,30.5,18.2,13.5-4.3,21.7-18.4,34.6-24.3,12.7-6.1,23.9,3.9,20.6,17.8-1.4,5.9-4.8,10.8-9.4,15.6-8.4,9.1-23.2,17.7-20.8,31.8,4,16.6,23.6,26.8,27.7,42.5,2,7.1-.2,15.9-6.8,19.7-13.8,7.2-25.3-11.9-33.1-21.1-19.5-27-31.6-12.2-49.9,6.2-6.3,6.1-14.6,13.4-23.9,10.4-8.3-2.8-12.1-12.1-9.1-21,1.6-4.8,5-9.5,9-14,7.9-9.2,20.1-17.5,21-30.5.2-15.7-16-25.7-23-38.4-6-9.1-6.4-23.3,5.8-26.8h.2Z"/>
    </g>
  </g>
</svg>