<?xml version="1.0" encoding="UTF-8"?>
<svg id="Layer_1" xmlns="http://www.w3.org/2000/svg" viewBox="0 0 1500.78 1032.85">
 <defs>
      <linearGradient id="logo-gradient" x1="50%" y1="0%" x2="50%" y2="100%">
        <!--Use two colors and alternate them as shown below-->
        <stop offset="0%" stop-color="color-1">
          <animate attributeName="stop-color" values="#5200ff; #17404e; #5200ff" dur="4s" repeatCount="indefinite"></animate>
        </stop>
        <stop offset="50%" stop-color="color-2">
          <animate attributeName="stop-color" values="#17404e; #5200ff; #17404e" dur="6s" repeatCount="indefinite"></animate>
        </stop>
        <stop offset="100%" stop-color="color-3">
          <animate attributeName="stop-color" values="#5200ff; #17404e; #5200ff" dur="4s" repeatCount="indefinite"></animate>
        </stop>

      </linearGradient>
    </defs>
  <path d="M1269.98,648.39c-35.36,11.57-67.76,38.31-97.47,60.23-33.44,24.68-66,50.58-98.45,76.55-31.67,25.34-62.72,51.89-95.73,75.49-10.73,7.67-30.43,28.33-44.11,18.8-10.11-7.04-4.49-43.42-4.49-53.7-2.37-.84-5.89-2.08-8.58-3.02-65.47,56.93-137.41,104.98-221.8,128.44-83.24,23.14-173.92,21.26-257.23-1.12-72.03-19.35-155.95-63.22-199.16-126.38-20.72-30.28,2.56-77.65,14.64-108.94,14.48-37.53,36.52-66.6,59.14-99.18-65.3,11.88-137.8,15.09-201.55-6.19-40.38-13.48-159.84-63.7-97.55-120.89,21.86,40.76,44.37,68.74,89.39,84.95,40.15,14.46,90.84,15.47,133.31,15.99,23.96.3,118.43-1.29,107.73-42.77-4.47-17.33-31.96-31.27-45.86-40.21-19.26-12.37-39.66-22.8-60.53-32.15-40.92-18.34-84.05-31.82-124.58-50.99-45.32-21.44-15.09-58.57,10.2-86.65,31.65-35.16,66.59-56.67,107.9-78.41,18.27-9.62,36.49-19.19,57.16-22.38,28.23-4.36,35.09,13.43,50.27,33.94,32.07,43.34,63.97,86.81,96.45,129.84,31.17,41.29,69.19,80.57,96.41,124.45,28.52-38.19,52.74-78.89,78.27-119.13,21.35-33.67,56.99-70.45,55.25-112.74-1.33-32.4-12.68-64.63,25.87-77.78,19.23-6.56,36.49.05,55.28-2.81,19.92-3.03,27.13-24.47,37.66-40.29,47.19-70.91,116.86-130.22,198.7-155.5,42.38-13.1,89.98-21.06,134.03-11.9,16.96,3.53,40.88,8.77,45.66,26.99,4.91,18.67-6.66,47.97-12.84,65.35-33.56,94.35-101.58,162.16-189.88,205.27,15.4,37.3,55.33-5.54,73.71-18.87,29.03-21.05,57.5-42.98,80.91-70.37,40.99-47.96,66.18-107.64,76.78-169.45,1.2-.02,2.39-.05,3.59-.07,14.19,33.63,12.83,81.02,17.55,117.2,5.32,40.72,10.63,81.51,13.84,122.47,3.16,40.37,4.72,80.85,7.41,121.25,2.2,33.1,9.54,61.21-10.85,90.44-41.9,60.06-110.53,98.26-156.65,154.89-22.3,27.39-42.53,56.42-64.72,83.9-23.1,28.6-25.78,56.71-29.39,92.28,77.21-50.42,139.36-118.91,219.59-166,18.12-10.64,92.48-64.84,111.52-36.89,9.91,14.55-2.62,45.85-6.14,61.48-6.01,26.69-14.69,51.93-23.4,77.81,41.78-27.23,84.34-52.94,128.93-75.43,12.85-6.48,33.19-20.5,47.06-9.58,14.03,11.05,11.59,41.13,13.65,57.05,6.39,49.29,14.55,98.28,21.33,147.51,3.59,26.04,6.61,52.17,8.67,78.38,1.31,16.72,8.88,47.38-1.41,62.23-6.36,9.18-22.88,15.28-31.76,7.47-11.75-10.32-11.12-43.59-13.58-58.44-8.7-52.62-16.89-105.32-25.26-157.99-3.01-18.91-3.55-93.17-26.43-92.16-12.98.57-39.87,28.72-51.07,36.81-23.52,16.97-47.06,33.93-70.72,50.71-19.44,13.79-42.33,34.24-65.78,40.6-26.45,7.17-3.63-32.99,1.64-46.55,19.65-50.63,43.63-101.34,57.49-153.85ZM541.99,933.62c51.57,3.39,114.09-10.59,162.24-29.15,24.19-9.32,40.06-16.78,40.46-44.04.37-25.75-1.92-51.55-7.34-76.74-35.24-163.78-237.98-294.57-378.28-156.28-30.37,29.93-58.47,71.19-74.05,110.99-5.96,15.21-16.53,41.86-12.18,58.44,3.62,13.8,25.68,32.15,35.86,42.5,58.85,59.84,152.03,86.27,233.29,94.28ZM498.97,529.66c-58.07-78.26-118.4-155.17-178.4-231.97-10.89-13.94-16.78-24-35.38-22.26-18.08,1.69-40.28,17.49-55.22,27.23-34.43,22.44-72.81,50.82-97.58,83.67,52.38,24.24,105.75,46.79,157.42,72.52,37.76,18.8,96.48,44.58,101.22,92.84,36.15-7.38,71.51-14.59,107.94-22.03ZM792.15,219.18c.9,1.34,1.8,2.69,2.7,4.03,19.84,5.06,38.64,11.88,57.95,18.62,19.7,6.88,26.01,7.74,42.87-5.3,30-23.19,61.71-41.39,94.98-59.5,32.77-17.84,63.05-34.49,98.74-45.34,31.72-9.64,42.11-40.95,48.63-72.1,3.88-18.53-2.57-18.89-19.8-22.29-22.18-4.38-44.43-5.53-67.01-4.69-36.59,1.37-73.24,9.88-104.12,30.28-29.74,19.65-60.14,42.82-86.62,66.67-28.35,25.53-46.67,58.71-68.32,89.61ZM735.87,262.7c-13.29.64-22.12-2.22-24.91,10.78-2.81,13.11,9.23,42.22,12.13,55.53,7.16,32.9,11.74,67.85,21.86,99.95,10.26,32.54,41.57,41.97,70.63,53.68,31.64,12.74,46.61,8.82,69.1-17.08,21.42-24.68,37.92-52.93,54.47-80.97,5.71-9.68,16.13-20.68,12.01-32.28-4.11-11.54-26.97-22.55-36.57-28.26-52.44-31.17-117.11-58.79-178.71-61.35ZM676.5,360.06c-26.53,35.27-49,73.92-72.77,111.09-8.55,13.38-35.97,43.04-37.14,58.28-1.53,19.95,17.01,21.89,32.26,17.66,37.63-10.44,76.13-45.9,103.95-72.07,19.24-18.1,12.6-28.07,2.79-51.49-8.99-21.45-19.32-42.38-29.08-63.48ZM946.6,790.14c23.77-20.17,29.51-28.75,28.87-60.96-.66-32.88-1.24-65.76-1.78-98.64-.57-34.82-1.11-69.63-1.67-104.45-.5-31.12,3.55-66.78-6.13-96.4-17.17,25-13.57,57.07-14.45,86.92-.89,30.21-1.37,60.44-2.01,90.66-1.28,60.62-5.9,122.34-2.83,182.88ZM646.32,556.09c17.5,15,55.67,19.93,77.9,26.23,17.29,4.9,51.65,16.98,69.3,7.56,37.58-20.06-72.32-62.47-82.05-74.3,17.55-13.26,37.65-7.93,58.4-3.7,12.79,2.6,52.04,24.71,59.65,9.72-19.76-16.84-112.47-47.15-130.04-14.28-15.98,29.88,73.08,48.54,86.26,67.96-21.76,7.6-54.09-4.44-76.4-9.45-20.41-4.58-43.81-24.07-63.01-9.75Z"/>
</svg>

