<svg id="ezOKqfUT38Z1" xmlns="http://www.w3.org/2000/svg" xmlns:xlink="http://www.w3.org/1999/xlink" viewBox="0 0 1500.8 1032.83" shape-rendering="geometricPrecision" text-rendering="geometricPrecision" project-id="3c2c55c7f5ba4d7eaffffd3c6593025f" export-id="15fba081e2914f3f896e0fdd78768530" cached="false">
<style><![CDATA[
#ezOKqfUT38Z5_to {animation: ezOKqfUT38Z5_to__to 5500ms linear infinite normal forwards}@keyframes ezOKqfUT38Z5_to__to { 0% {transform: translate(-7.211968px,-0.007001px);animation-timing-function: cubic-bezier(0.42,0,1,1)} 16.363636% {transform: translate(-7.212562px,-182.977438px);animation-timing-function: cubic-bezier(0.42,0,0.58,1)} 23.636364% {transform: translate(-7.212562px,-112.457582px);animation-timing-function: cubic-bezier(0.42,0,0.58,1)} 30.909091% {transform: translate(-7.212562px,-209.660627px);animation-timing-function: cubic-bezier(0.42,0,0.58,1)} 38.181818% {transform: translate(-7.212561px,-154.388308px);animation-timing-function: cubic-bezier(0.42,0,0.58,1)} 48.909091% {transform: translate(-7.212561px,-182.977439px);animation-timing-function: cubic-bezier(0.42,0,0.58,1)} 63.454545% {transform: translate(-7.212561px,-99.115989px);animation-timing-function: cubic-bezier(0.42,0,0.58,1)} 74.363636% {transform: translate(-7.212561px,-182.977439px);animation-timing-function: cubic-bezier(0.42,0,0.58,1)} 85.272727% {transform: translate(-7.212561px,-99.115989px)} 100% {transform: translate(-7.211968px,-0.007001px)}} #ezOKqfUT38Z5_tr {animation: ezOKqfUT38Z5_tr__tr 5500ms linear infinite normal forwards}@keyframes ezOKqfUT38Z5_tr__tr { 0% {transform: rotate(0deg);animation-timing-function: cubic-bezier(0.42,0,1,1)} 14.545455% {transform: rotate(5.389793deg);animation-timing-function: cubic-bezier(0.42,0,0.58,1)} 20% {transform: rotate(0deg);animation-timing-function: cubic-bezier(0.42,0,0.58,1)} 43.636364% {transform: rotate(-6.608536deg);animation-timing-function: cubic-bezier(0.42,0,0.58,1)} 58.181818% {transform: rotate(0deg);animation-timing-function: cubic-bezier(0.42,0,0.58,1)} 70.909091% {transform: rotate(-2.613952deg);animation-timing-function: cubic-bezier(0.42,0,0.58,1)} 80% {transform: rotate(13.157705deg);animation-timing-function: cubic-bezier(0.42,0,0.58,1)} 89.090909% {transform: rotate(-1.259873deg);animation-timing-function: cubic-bezier(0.42,0,0.58,1)} 94.545455% {transform: rotate(9.015993deg)} 100% {transform: rotate(0deg)}}
]]></style>
<g transform="translate(750.4 516.422)"><g><g id="ezOKqfUT38Z5_to" transform="translate(-7.211968,-0.007001)"><g id="ezOKqfUT38Z5_tr" transform="rotate(0)"><path d="M1269.99,648.4c-35.36,11.57-67.76,38.31-97.47,60.23-33.44,24.68-66,50.58-98.45,76.55-31.67,25.34-62.72,51.89-95.73,75.49-10.73,7.67-30.43,28.33-44.11,18.8-10.11-7.04-4.49-43.42-4.49-53.7-2.37-.84-5.89-2.08-8.58-3.02-65.47,56.93-137.41,104.98-221.8,128.44-83.24,23.14-173.92,21.26-257.23-1.12-72.03-19.35-155.95-63.22-199.16-126.38-20.72-30.28,2.56-77.65,14.64-108.94c14.48-37.53,36.52-66.6,59.14-99.18-65.3,11.88-137.8,15.09-201.55-6.19-40.38-13.48-159.84-63.7-97.55-120.89c21.86,40.76,44.37,68.74,89.39,84.95c40.15,14.46,90.84,15.47,133.31,15.99c23.96.3,118.43-1.29,107.73-42.77-4.47-17.33-31.96-31.27-45.86-40.21-19.26-12.37-39.66-22.8-60.53-32.15-40.92-18.34-84.05-31.82-124.58-50.99-45.32-21.44-15.09-58.57,10.2-86.65c31.65-35.16,66.59-56.67,107.9-78.41c18.27-9.62,36.49-19.19,57.16-22.38c28.23-4.36,35.09,13.43,50.27,33.94c32.07,43.34,63.97,86.81,96.45,129.84c31.17,41.29,69.19,80.57,96.41,124.45c28.52-38.19,52.74-78.89,78.27-119.13c21.35-33.67,56.99-70.45,55.25-112.74-1.33-32.4-12.68-64.63,25.87-77.78c19.23-6.56,36.49.05,55.28-2.81c19.92-3.03,27.13-24.47,37.66-40.29c47.19-70.91,116.86-130.22,198.7-155.5c42.38-13.1,89.98-21.06,134.03-11.9c16.96,3.53,40.88,8.77,45.66,26.99c4.91,18.67-6.66,47.97-12.84,65.35-33.56,94.35-101.58,162.16-189.88,205.27c15.4,37.3,55.33-5.54,73.71-18.87c29.03-21.05,57.5-42.98,80.91-70.37c40.99-47.96,66.18-107.64,76.78-169.45c1.2-.02,2.39-.05,3.59-.07c14.19,33.63,12.83,81.02,17.55,117.2c5.32,40.72,10.63,81.51,13.84,122.47c3.16,40.37,4.72,80.85,7.41,121.25c2.2,33.1,9.54,61.21-10.85,90.44-41.9,60.06-110.53,98.26-156.65,154.89-22.3,27.39-42.53,56.42-64.72,83.9-23.1,28.6-25.78,56.71-29.39,92.28c77.21-50.42,139.36-118.91,219.59-166c18.12-10.64,92.48-64.84,111.52-36.89c9.91,14.55-2.62,45.85-6.14,61.48-6.01,26.69-14.69,51.93-23.4,77.81c41.78-27.23,84.34-52.94,128.93-75.43c12.85-6.48,33.19-20.5,47.06-9.58c14.03,11.05,11.59,41.13,13.65,57.05c6.39,49.29,14.55,98.28,21.33,147.51c3.59,26.04,6.61,52.17,8.67,78.38c1.31,16.72,8.88,47.38-1.41,62.23-6.36,9.18-22.88,15.28-31.76,7.47-11.75-10.32-11.12-43.59-13.58-58.44-8.7-52.62-16.89-105.32-25.26-157.99-3.01-18.91-3.55-93.17-26.43-92.16-12.98.57-39.87,28.72-51.07,36.81-23.52,16.97-47.06,33.93-70.72,50.71-19.44,13.79-42.33,34.24-65.78,40.6-26.45,7.17-3.63-32.99,1.64-46.55c19.65-50.63,43.63-101.34,57.49-153.85h-.02v.01ZM542,933.63c51.57,3.39,114.09-10.59,162.24-29.15c24.19-9.32,40.06-16.78,40.46-44.04.37-25.75-1.92-51.55-7.34-76.74-35.24-163.78-237.98-294.57-378.28-156.28-30.37,29.93-58.47,71.19-74.05,110.99-5.96,15.21-16.53,41.86-12.18,58.44c3.62,13.8,25.68,32.15,35.86,42.5c58.85,59.84,152.03,86.27,233.29,94.28v0ZM498.98,529.67c-58.07-78.26-118.4-155.17-178.4-231.97-10.89-13.94-16.78-24-35.38-22.26-18.08,1.69-40.28,17.49-55.22,27.23-34.43,22.44-72.81,50.82-97.58,83.67c52.38,24.24,105.75,46.79,157.42,72.52c37.76,18.8,96.48,44.58,101.22,92.84c36.15-7.38,71.51-14.59,107.94-22.03v0ZM792.16,219.19c.9,1.34,1.8,2.69,2.7,4.03c19.84,5.06,38.64,11.88,57.95,18.62c19.7,6.88,26.01,7.74,42.87-5.3c30-23.19,61.71-41.39,94.98-59.5c32.77-17.84,63.05-34.49,98.74-45.34c31.72-9.64,42.11-40.95,48.63-72.1c3.88-18.53-2.57-18.89-19.8-22.29-22.18-4.38-44.43-5.53-67.01-4.69-36.59,1.37-73.24,9.88-104.12,30.28-29.74,19.65-60.14,42.82-86.62,66.67-28.35,25.53-46.67,58.71-68.32,89.61v0v.01Zm-56.28,43.52c-13.29.64-22.12-2.22-24.91,10.78-2.81,13.11,9.23,42.22,12.13,55.53c7.16,32.9,11.74,67.85,21.86,99.95c10.26,32.54,41.57,41.97,70.63,53.68c31.64,12.74,46.61,8.82,69.1-17.08c21.42-24.68,37.92-52.93,54.47-80.97c5.71-9.68,16.13-20.68,12.01-32.28-4.11-11.54-26.97-22.55-36.57-28.26-52.44-31.17-117.11-58.79-178.71-61.35h-.01Zm-59.37,97.36c-26.53,35.27-49,73.92-72.77,111.09-8.55,13.38-35.97,43.04-37.14,58.28-1.53,19.95,17.01,21.89,32.26,17.66c37.63-10.44,76.13-45.9,103.95-72.07c19.24-18.1,12.6-28.07,2.79-51.49-8.99-21.45-19.32-42.38-29.08-63.48v0l-.01.01Zm270.1,430.08c23.77-20.17,29.51-28.75,28.87-60.96-.66-32.88-1.24-65.76-1.78-98.64-.57-34.82-1.11-69.63-1.67-104.45-.5-31.12,3.55-66.78-6.13-96.4-17.17,25-13.57,57.07-14.45,86.92-.89,30.21-1.37,60.44-2.01,90.66-1.28,60.62-5.9,122.34-2.83,182.88v0-.01ZM646.33,556.1c17.5,15,55.67,19.93,77.9,26.23c17.29,4.9,51.65,16.98,69.3,7.56c37.58-20.06-72.32-62.47-82.05-74.3c17.55-13.26,37.65-7.93,58.4-3.7c12.79,2.6,52.04,24.71,59.65,9.72-19.76-16.84-112.47-47.15-130.04-14.28-15.98,29.88,73.08,48.54,86.26,67.96-21.76,7.6-54.09-4.44-76.4-9.45-20.41-4.58-43.81-24.07-63.01-9.75h-.01v.01Z" transform="scale(0.427203,0.427203) translate(-733.517883,-516.405567)" fill="#2c51d7"/></g></g></g></g><g display="none" transform="matrix(2.95094 0 0 2.95094 999.14 826.264)"><path d="M100.296,3.59097h1.86105v8.05706h-1.86105v-8.05706Zm.93793-1.32776c-.33752,0-.62035-.10561-.84864-.31684-.22829-.22129-.34251-.49288-.34251-.81477s.11422-.58843.34251-.79967c.22829-.22129.51112-.33193.84864-.33193s.62035.10562.84864.31685c.22829.20117.34251.45766.34251.76949c0,.33195-.11422.61358-.34251.84494-.21832.22129-.5013.33193-.84864.33193Zm17.50762,4.76743v4.61696h-1.86105v-4.37556c0-.70411-.16378-1.23218-.49133-1.58425-.32755-.3621-.7941-.54316-1.39949-.54316-.68501,0-1.2259.21123-1.62294.63369-.39705.41241-.59557,1.0109-.59557,1.7955v4.07379h-1.86105v-11.19538h1.86105v4.07379c.30776-.33195.68486-.58341,1.13162-.75441.45658-.18106.96271-.27159,1.51855-.27159c1.00259,0,1.80651.29673,2.41206.8902.60539.59346.90817,1.4736.90817,2.64042h-.00002ZM107.5923,11.7549c-.87342,0-1.54846-.23136-2.02483-.69407-.47652-.46269-.71478-1.13663-.71478-2.02181v-3.87763h-1.3102v-1.50882h1.3102v-1.84075h1.8612v1.84075h2.12908v1.50882h-2.12908v3.83237c0,.39231.09428.69407.28283.9053.18855.20117.46156.30176.81888.30176.41684,0,.76433-.11065,1.04218-.33195l.52109,1.34285c-.21832.18106-.48634.31685-.80392.40738-.30776.09053-.63531.13579-.98265.13579v.00001Zm-13.2957-.10591L92.24186,6.09656L90.1575,11.64899h-1.78672L85.45259,3.59193h1.75696l2.09931,5.94472l2.18861-5.94472h1.56327l2.14403,5.97489l2.15884-5.97489h1.65271l-2.93315,8.05706h-1.78657ZM80.71172,7.66404c0,.13076-.00982.31685-.02976.55826h-6.23841c.10923.59347.39221,1.06623.84879,1.41829.4664.34199,1.04218.51299,1.72704.51299.87342,0,1.59303-.2917,2.15884-.87511l.99761,1.16179c-.35731.43252-.80906.75943-1.35492.98072s-1.16138.33195-1.84625.33195c-.87342,0-1.64274-.17603-2.30766-.52808-.66507-.35206-1.18118-.83991-1.54846-1.46355-.35731-.63369-.53605-1.34787-.53605-2.14251c0-.78458.17375-1.48869.52109-2.11234.35731-.63371.84864-1.12657,1.47398-1.47863s1.33015-.52808,2.11427-.52808c.77415,0,1.464.17603,2.06955.52808.61537.34199,1.09189.82985,1.42926,1.46354.34749.62364.52109,1.34788.52109,2.1727l-.00001-.00002ZM76.69183,5.00853c-.59557,0-1.1017.18106-1.5187.54318-.40687.35206-.6551.82481-.74439,1.41829h4.51122c-.07932-.58341-.32256-1.05617-.72943-1.41829-.40702-.36212-.9133-.54318-1.5187-.54318ZM69.01645,11.6476v-1.04108c-.30776.38223-.68985.66889-1.14643.86002-.44676.19112-.94291.28668-1.48893.28668-.76433,0-1.45403-.17101-2.06955-.51301-.60539-.34199-1.08191-.82481-1.42925-1.44846-.34749-.63369-.52109-1.35793-.52109-2.17268s.17359-1.53397.52109-2.1576c.34734-.62364.82386-1.10646,1.42925-1.44846C64.92706,3.671,65.61676,3.5,66.38109,3.5c.52607,0,1.00743.09053,1.44421.27159s.8089.45265,1.11666.81477v-4.13414h1.86105v11.19538h-1.78656Zm-.35731-2.70078c.20834-.38223.31259-.82481.31259-1.32774s-.10425-.94553-.31259-1.32776c-.2085-.38223-.49133-.67394-.84864-.87511-.35746-.21125-.75935-.31685-1.2061-.31685-.4466,0-.84864.10561-1.20595.31685-.35731.20117-.64014.49288-.84864.87511s-.31259.82481-.31259,1.32776.1041.94551.31259,1.32774.49132.67897.84864.8902c.35731.20118.75935.30176,1.20595.30176.44676,0,.84864-.10058,1.2061-.30176.35731-.21123.64014-.50796.84864-.8902ZM56.93698,3.49973c1.1712,0,2.06456.28667,2.67993.86002.62534.56329.93793,1.41829.93793,2.56499v4.72257h-1.75681v-.98072c-.22829.35206-.55584.62363-.98265.81475-.41699.18106-.92312.27159-1.5187.27159s-1.11666-.10059-1.56327-.30176c-.44671-.21125-.79411-.49791-1.04225-.86003-.23823-.37217-.35733-.78961-.35733-1.25231c0-.72424.26304-1.30262.7891-1.73514.536-.44259,1.37467-.66388,2.51626-.66388h2.05459v-.1207c0-.56329-.16876-.99581-.50628-1.29757-.32755-.30178-.81888-.45265-1.47398-.45265-.4466,0-.88837.0704-1.32501.21123-.42681.14083-.78911.33696-1.08691.58844l-.72956-1.37302c.41689-.32189.91812-.56832,1.50373-.73932s1.20595-.2565,1.8612-.2565l.00001.00001Zm-.25322,6.88017c.46655,0,.8784-.10562,1.23587-.31685.36714-.22129.62519-.53312.77415-.93545v-.93547h-1.92073c-1.07194,0-1.60784.35709-1.60784,1.07126c0,.34199.13386.61357.40188.81475s.6403.30176,1.11666.30176h.00001Zm-10.69116.06065h-.86354l-3.42441-5.7033v6.91036h-1.8462v-10.56169h1.59309l4.13907,7.00089l4.06463-7.00089h1.59309l.01488,10.56169h-1.8313l-.0149-7.00089-3.42441,5.79383Zm63.34121,18.8993v15.15h-3.372v-1.962c-.57764.71189-1.32435,1.2678-2.172,1.617-.90563.36793-1.87555.55151-2.853.54-1.37977.02378-2.74245-.30785-3.957-.963-1.13745-.62625-2.07375-1.56255-2.7-2.7-1.30391-2.56373-1.30391-5.59627,0-8.16.6281-1.13606,1.56394-2.0719,2.7-2.7c1.21546-.65275,2.57751-.98423,3.957-.963.92501-.00857,1.84259.16578,2.7.513.8172.33509,1.54983.84741,2.145,1.5v-.762c0-.28643.11378-.56114.31633-.76367s.47724-.31633.76367-.31633l2.472-.03Zm-4.767,11.01c1.70241-1.9736,1.70241-4.8964,0-6.87-1.79985-1.74394-4.65915-1.74394-6.459,0-1.68467,1.98016-1.68467,4.88984,0,6.87.84101.87157,2.01145,1.34672,3.222,1.308c1.21374.03854,2.38799-.43377,3.237-1.302v-.006Zm17.94,3.324c-.4506.35546-.96927.61479-1.524.762-.61408.17233-1.2492.25816-1.887.255-1.41013.09088-2.79902-.37927-3.864-1.308-.9622-1.0234-1.45181-2.403-1.35-3.804v-13.59h2.469c.28643,0,.56114.11378.76367.31633s.31633.47724.31633.76367v2.379h4.047v2.853h-4.047v7.2c-.04376.61441.15433,1.2216.552,1.692.40613.41048.96838.62774,1.545.597.22613.00135.45196-.01672.675-.054.80958-.16952,1.6251.26156,1.941,1.026l.363.912Zm5.079.027c-1.20043-.63362-2.19844-1.59212-2.88-2.766-1.3796-2.49392-1.3796-5.52208,0-8.016.68541-1.16705,1.68279-2.11975,2.88-2.751c2.61457-1.32565,5.70443-1.32565,8.319,0c1.19702.63151,2.19433,1.58416,2.88,2.751c1.3796,2.49392,1.3796,5.52208,0,8.016-.68182,1.17368-1.67976,2.13211-2.88,2.766-2.61457,1.32565-5.70443,1.32565-8.319,0Zm7.392-3.369c1.70241-1.9736,1.70241-4.8964,0-6.87-1.79985-1.74394-4.65915-1.74394-6.459,0-1.68467,1.98016-1.68467,4.88984,0,6.87.84101.87157,2.01145,1.34672,3.222,1.308c1.21059.04404,2.38438-.42048,3.237-1.281v-.027Zm17.022-11.16v3.372c-.27077-.05406-.54592-.08318-.822-.087-1.19439-.06706-2.36247.36798-3.222,1.2-.83467.95959-1.25439,2.2112-1.167,3.48v7.353h-3.552v-15.15h2.298c.28643,0,.56113.11379.76367.31633s.31633.47724.31633.76367v1.134c1.014-1.588,2.809-2.382,5.385-2.382Zm-107.022,15.042c-.99952-.24447-1.95011-.65737-2.811-1.221l.621-1.233c.3744-.7399,1.2508-1.07278,2.022-.768.37389.15524.75654.28847,1.146.399.91807.26884,1.86939.4072,2.826.411c2.118,0,3.179-.557,3.183-1.671.01432-.51063-.31898-.96614-.81-1.107-.84397-.28199-1.7129-.4829-2.595-.6-1.03337-.14877-2.05419-.3744-3.054-.675-.77526-.24876-1.47221-.69547-2.022-1.296-.61143-.71083-.9214-1.63215-.864-2.568-.02956-1.38298.6493-2.68527,1.8-3.453c1.44674-.93234,3.1502-1.38576,4.869-1.296c1.05397.00022,2.10457.11896,3.132.354.90209.18897,1.76874.51902,2.568.978l-.675,1.296c-.363.73034-1.21602,1.07232-1.983.795-.9848-.3605-2.02631-.54137-3.075-.534-.81824-.04818-1.63519.11397-2.373.471-.48302.22293-.79719.70118-.81,1.233-.01041.54748.34149,1.03623.864,1.2.87464.31646,1.77934.54264,2.7.675c1.00825.15143,2.00395.37704,2.979.675.77042.2345,1.46702.66444,2.022,1.248.59601.69214.89656,1.59055.837,2.502.02092,1.37985-.67962,2.67062-1.848,3.405-1.50499.92728-3.25673,1.37412-5.022,1.281-1.22607-.00259-2.44614-.17112-3.627-.501Zm44.883-14.874v12.858c0,5.336-2.724,8.004-8.172,8.004-1.40084.00811-2.79608-.17765-4.146-.552-1.17835-.30549-2.28055-.85199-3.237-1.605l1.026-1.713c.30567-.49262.95204-.6455,1.446-.342.51805.29338,1.06493.53264,1.632.714.99571.32459,2.03673.48864,3.084.486c1.664,0,2.884-.378,3.66-1.134.84612-.94702,1.26781-2.19906,1.167-3.465v-.795c-.61114.66419-1.36796,1.17763-2.211,1.5-.91436.34924-1.88627.52327-2.865.513-1.35633.0185-2.69615-.29893-3.9-.924-1.14224-.59206-2.09694-1.49066-2.757-2.595-.68212-1.15978-1.02996-2.48573-1.005-3.831-.02691-1.34077.32116-2.66242,1.005-3.816.65985-1.09557,1.61266-1.98501,2.751-2.568c1.20751-.61258,2.54617-.9215,3.9-.9c1.02537-.01399,2.04386.16934,3,.54.88145.34534,1.65934.91145,2.259,1.644v-.936c0-.28643.11379-.56114.31633-.76367s.47724-.31633.76367-.31633l2.283-.003Zm-4.782,10.263c.86632-.80774,1.34014-1.95125,1.299-3.135.03647-1.17094-.43625-2.30022-1.296-3.096-1.9293-1.58787-4.7127-1.58787-6.642,0-.85642.7974-1.32577,1.92647-1.287,3.096-.04421,1.18189.4251,2.3251,1.287,3.135c1.92186,1.60535,4.71714,1.60535,6.639,0Zm-12.057-10.278l-5.892,13.743c-.36888.86087-1.21443,1.41985-2.151,1.422h-1.902l5.763-13.404.3-.675c.28294-.65223.92704-1.07338,1.638-1.071l2.244-.015Zm-10.785,13.263l-5.889-13.236h2.511c.71819-.00121,1.36666.42953,1.644,1.092l3.492,8.046-1.758,4.098Z" opacity="0.7" clip-rule="evenodd" fill="#fff" fill-rule="evenodd"/><g transform="matrix(.3 0 0 0.3-18.1224-25.9059)" opacity="0.7" mask="url(#ezOKqfUT38Z11)"><path d="M129.5,243.58426c-8.76,2.18-20.08,1.79-37.33-19.63-2.35828-2.9281-4.38181-6.36293-5.93416-10.02849c3.00814.97918,6.21933,1.50849,9.55416,1.50849c17.03246,0,30.84-13.80754,30.84-30.84c0-5.42003-1.39819-10.5135-3.85355-14.93939c22.54068-3.14789,48.24701-1.18662,56.01355,6.19939c12.32,11.73-14.11,59.03-49.29,67.73Z" fill="#fff"/><mask id="ezOKqfUT38Z11" mask-type="alpha" x="-150%" y="-150%" height="400%" width="400%"><g transform="translate(135.338 207.039)"><path d="M78.37454,207.03926c0-31.45994,25.50332-56.96327,56.96327-56.96327s56.96327,25.50332,56.96327,56.96327-25.50332,56.96327-56.96327,56.96327-56.96327-25.50332-56.96327-56.96327Zm89.23546-4.715c-.16775-.93858-1.05962-1.56734-2-1.41h-.06c-4.15414.71597-8.30501-1.28258-10.33588-4.97651s-1.49439-8.26953,1.33588-11.39349c.33036-.3301.51598-.77798.51598-1.245s-.18561-.9149-.51598-1.245l-.11-.1c-2.70671-2.31865-5.78705-4.16144-9.11-5.45-.43613-.17299-.92328-.16468-1.35326.02308s-.76719.53944-.93674.97692v.06c-1.40364,3.98681-5.18789,6.63916-9.41438,6.59848s-7.95898-2.76539-9.28562-6.77848c-.13404-.44903-.44162-.82607-.85458-1.04757s-.8972-.26916-1.34542-.13243h-.11c-3.26392,1.21388-6.31249,2.94242-9.03,5.12-.37331.28196-.619.70095-.6828,1.16441s.05956.93325.3428,1.30559l.1.12c2.68294,3.2243,3.03751,7.79124.8844,11.39101s-6.34454,5.44763-10.4544,4.60899c-.45624-.10445-.9353-.02286-1.33126.22672s-.67619.6466-.77874,1.10328v.09c-.55386,3.43784-.55386,6.94217,0,10.38.06433.46505.31181.88512.68739,1.16681s.84815.40164,1.31261.33319h.11c4.15414-.71597,8.30501,1.28258,10.33588,4.97651s1.49439,8.26953-1.33588,11.39349c-.33036.3301-.51598.77798-.51598,1.245s.18561.9149.51598,1.245l.11.1c2.70914,2.30768,5.7893,4.14023,9.11,5.42.43613.17299.92328.16468,1.35326-.02308s.76719-.53944.93674-.97692v-.06c1.40815-3.97311,5.18194-6.61524,9.39704-6.57914s7.94308,2.7425,9.28296,6.73914c.13404.44903.44162.82607.85458,1.04757s.8972.26916,1.34542.13243h.11c3.30375-1.22537,6.38706-2.97809,9.13-5.19.37164-.28659.61343-.70974.67164-1.17542s-.07198-.93533-.36164-1.30458l-.1-.12c-2.83001-3.19588-3.28744-7.84789-1.13412-11.53378s6.43037-5.57199,10.60412-4.67622c.93041.23341,1.87421-.33019,2.11-1.26v-.09c.5347-3.37898.5347-6.82102,0-10.2Zm-41.67,4.69c0-5.197,4.213-9.41,9.41-9.41s9.41,4.213,9.41,9.41-4.213,9.41-9.41,9.41-9.41-4.213-9.41-9.41Z" transform="translate(-135.338-207.039)" fill="#d2dbed" stroke-width="0"/></g></mask></g><g transform="translate(11.12 29.9)"><path d="M116.33,114.77l-3.64-2.18c-1.023263-.593162-1.652267-1.687247-1.65-2.87v-2c-.002267-1.182753.626737-2.276838,1.65-2.87l3.64-2.18c.762973-.435835,1.321342-1.157154,1.552062-2.005003s.114855-1.752643-.322062-2.514997v0l-1.74-3c-.935215-1.566004-2.961067-2.080293-4.53-1.15v0l-3.68,2.18c-1.024118.591275-2.285882.591275-3.31,0l-1.7-1c-1.023263-.593162-1.652267-1.687247-1.65-2.87v-4.38c0-.877867-.348731-1.719778-.969477-2.340523s-1.462656-.969477-2.340523-.969477h-3.47c-.877867,0-1.719778.348731-2.340523.969477s-.969477,1.462656-.969477,2.340523s0,.06,0,.09v4.35c.002267,1.182753-.626737,2.276838-1.65,2.87l-1.68,1c-1.024118.591275-2.285882.591275-3.31,0L80.56,94c-.767143-.448916-1.682599-.570435-2.540292-.337203s-1.585543.801616-2.019708,1.577203v0l-1.74,3c-.443418.7584-.567152,1.661967-.343945,2.511654s.775044,1.575787,1.533945,2.018346v0L79.1,105c1.023263.593162,1.652267,1.687247,1.65,2.87v2c.002267,1.182753-.626737,2.276838-1.65,2.87l-3.61,2.18c-1.578036.917936-2.114924,2.940216-1.2,4.52v0l1.74,3c.917936,1.578036,2.940216,2.114924,4.52,1.2v0l3.66-2.18c1.024118-.591275,2.285882-.591275,3.31,0l1.68,1c1.023263.593162,1.652267,1.687247,1.65,2.87v3.67c0,.877867.348731,1.719778.969477,2.340523s1.462656.969477,2.340523.969477h3.46c.877867,0,1.719778-.348731,2.340523-.969477s.969477-1.462656.969477-2.340523v0-3.77c-.002267-1.182753.626737-2.276838,1.65-2.87l1.7-1c1.024118-.591275,2.285882-.591275,3.31,0l3.66,2.18c1.5824.913239,3.605483.371662,4.52-1.21v0l1.74-3c.938839-1.568495.428452-3.601089-1.14-4.54l-.04-.02Zm-20.49.91c-3.865993,0-7-3.134007-7-7s3.134007-7,7-7s7,3.134007,7,7v0c0,3.865993-3.134007,7-7,7v0Z" transform="matrix(.3 0 0 0.3-28.7708-32.5395)" opacity="0.7" fill="#fff"/></g></g></svg>
