<?xml version="1.0" encoding="UTF-8"?>
<svg xmlns="http://www.w3.org/2000/svg" viewBox="0 0 300 300">
  <defs>
    <style>
      .cls-1 {
        fill: #fff;
      }

      .cls-2 {
        fill: #2c51d7;
      }
    </style>
  </defs>
  <g id="Layer_2">
    <rect class="cls-1" width="300" height="300"/>
  </g>
  <g id="Layer_1">
    <path class="cls-2" d="M244.17,173.92c-6.41,2.1-12.28,6.94-17.67,10.92-6.06,4.47-11.96,9.17-17.84,13.87-5.74,4.59-11.37,9.4-17.35,13.68-1.94,1.39-5.52,5.13-7.99,3.41-1.83-1.28-.81-7.87-.81-9.73-.43-.15-1.07-.38-1.56-.55-11.87,10.32-24.9,19.03-40.2,23.28-15.09,4.19-31.52,3.85-46.62-.2-13.05-3.51-28.26-11.46-36.1-22.9-3.76-5.49.46-14.07,2.65-19.74,2.62-6.8,6.62-12.07,10.72-17.98-11.83,2.15-24.97,2.73-36.53-1.12-7.32-2.44-28.97-11.54-17.68-21.91,3.96,7.39,8.04,12.46,16.2,15.4,7.28,2.62,16.46,2.8,24.16,2.9,4.34.05,21.46-.23,19.52-7.75-.81-3.14-5.79-5.67-8.31-7.29-3.49-2.24-7.19-4.13-10.97-5.83-7.42-3.32-15.23-5.77-22.58-9.24-8.21-3.89-2.73-10.62,1.85-15.7,5.74-6.37,12.07-10.27,19.56-14.21,3.31-1.74,6.61-3.48,10.36-4.06,5.12-.79,6.36,2.43,9.11,6.15,5.81,7.85,11.59,15.73,17.48,23.53,5.65,7.48,12.54,14.6,17.47,22.55,5.17-6.92,9.56-14.3,14.19-21.59,3.87-6.1,10.33-12.77,10.01-20.43-.24-5.87-2.3-11.71,4.69-14.1,3.49-1.19,6.61,0,10.02-.51,3.61-.55,4.92-4.43,6.83-7.3,8.55-12.85,21.18-23.6,36.01-28.18,7.68-2.37,16.31-3.82,24.29-2.16,3.07.64,7.41,1.59,8.28,4.89.89,3.38-1.21,8.69-2.33,11.84-6.08,17.1-18.41,29.39-34.41,37.2,2.79,6.76,10.03-1,13.36-3.42,5.26-3.82,10.42-7.79,14.66-12.75,7.43-8.69,11.99-19.51,13.92-30.71.22,0,.43,0,.65-.01,2.57,6.09,2.33,14.68,3.18,21.24.96,7.38,1.93,14.77,2.51,22.2.57,7.32.86,14.65,1.34,21.97.4,6,1.73,11.09-1.97,16.39-7.59,10.89-20.03,17.81-28.39,28.07-4.04,4.96-7.71,10.23-11.73,15.21-4.19,5.18-4.67,10.28-5.33,16.72,13.99-9.14,25.26-21.55,39.8-30.09,3.28-1.93,16.76-11.75,20.21-6.69,1.8,2.64-.47,8.31-1.11,11.14-1.09,4.84-2.66,9.41-4.24,14.1,7.57-4.94,15.29-9.59,23.37-13.67,2.33-1.17,6.02-3.72,8.53-1.74,2.54,2,2.1,7.45,2.47,10.34,1.16,8.93,2.64,17.81,3.87,26.73.65,4.72,1.2,9.46,1.57,14.21.24,3.03,1.61,8.59-.26,11.28-1.15,1.66-4.15,2.77-5.76,1.35-2.13-1.87-2.02-7.9-2.46-10.59-1.58-9.54-3.06-19.09-4.58-28.63-.55-3.43-.64-16.89-4.79-16.7-2.35.1-7.23,5.21-9.26,6.67-4.26,3.08-8.53,6.15-12.82,9.19-3.52,2.5-7.67,6.21-11.92,7.36-4.79,1.3-.66-5.98.3-8.44,3.56-9.18,7.91-18.37,10.42-27.88h0ZM112.23,225.61c9.35.61,20.68-1.92,29.4-5.28,4.38-1.69,7.26-3.04,7.33-7.98.07-4.67-.35-9.34-1.33-13.91-6.39-29.68-43.13-53.39-68.56-28.32-5.5,5.42-10.6,12.9-13.42,20.12-1.08,2.76-3,7.59-2.21,10.59.66,2.5,4.65,5.83,6.5,7.7,10.67,10.85,27.55,15.64,42.28,17.09h0ZM104.43,152.4c-10.52-14.18-21.46-28.12-32.33-42.04-1.97-2.53-3.04-4.35-6.41-4.03-3.28.31-7.3,3.17-10.01,4.94-6.24,4.07-13.2,9.21-17.69,15.16,9.49,4.39,19.17,8.48,28.53,13.14,6.84,3.41,17.49,8.08,18.34,16.83,6.55-1.34,12.96-2.64,19.56-3.99h0ZM157.57,96.13c.16.24.33.49.49.73,3.6.92,7,2.15,10.5,3.37,3.57,1.25,4.71,1.4,7.77-.96,5.44-4.2,11.18-7.5,17.21-10.78,5.94-3.23,11.43-6.25,17.9-8.22,5.75-1.75,7.63-7.42,8.81-13.07.7-3.36-.47-3.42-3.59-4.04-4.02-.79-8.05-1-12.14-.85-6.63.25-13.27,1.79-18.87,5.49-5.39,3.56-10.9,7.76-15.7,12.08-5.14,4.63-8.46,10.64-12.38,16.24h0ZM147.37,104.02c-2.41.12-4.01-.4-4.51,1.95-.51,2.38,1.67,7.65,2.2,10.06,1.3,5.96,2.13,12.3,3.96,18.11,1.86,5.9,7.53,7.61,12.8,9.73,5.73,2.31,8.45,1.6,12.52-3.1,3.88-4.47,6.87-9.59,9.87-14.67,1.03-1.75,2.92-3.75,2.18-5.85-.74-2.09-4.89-4.09-6.63-5.12-9.5-5.65-21.22-10.65-32.39-11.12h0ZM136.61,121.66c-4.81,6.39-8.88,13.4-13.19,20.13-1.55,2.42-6.52,7.8-6.73,10.56-.28,3.62,3.08,3.97,5.85,3.2,6.82-1.89,13.8-8.32,18.84-13.06,3.49-3.28,2.28-5.09.51-9.33-1.63-3.89-3.5-7.68-5.27-11.5h0ZM185.56,199.61c4.31-3.66,5.35-5.21,5.23-11.05-.12-5.96-.22-11.92-.32-17.88-.1-6.31-.2-12.62-.3-18.93-.09-5.64.64-12.1-1.11-17.47-3.11,4.53-2.46,10.34-2.62,15.75-.16,5.48-.25,10.95-.36,16.43-.23,10.99-1.07,22.17-.51,33.14h0ZM131.14,157.19c3.17,2.72,10.09,3.61,14.12,4.75,3.13.89,9.36,3.08,12.56,1.37,6.81-3.64-13.11-11.32-14.87-13.47,3.18-2.4,6.82-1.44,10.58-.67,2.32.47,9.43,4.48,10.81,1.76-3.58-3.05-20.38-8.55-23.57-2.59-2.9,5.42,13.24,8.8,15.63,12.32-3.94,1.38-9.8-.8-13.85-1.71-3.7-.83-7.94-4.36-11.42-1.77h0Z"/>
  </g>
</svg>