<?xml version="1.0" encoding="UTF-8"?>
<svg xmlns="http://www.w3.org/2000/svg" version="1.1" viewBox="0 0 1265.7 1147.2">
  <defs>
    <style>
      .cls-1 {
        fill: #2c51d7;
      }
    </style>
  </defs>
  <!-- Generator: Adobe Illustrator 28.6.0, SVG Export Plug-In . SVG Version: 1.2.0 Build 709)  -->
  <g>
    <g id="Layer_1">
      <path class="cls-1" d="M634.8,481.9c22.1-43.7,5.4-92.5-6.4-136.7-15.2-58.3-29.7-120.9-17.6-180.1,11.8-53.9,41.1-101.6,74.7-144.9,7.4-9,9.9-9,8.7-.2-.8,7-3.6,19.5-4.1,31.3-.5,10.7.4,21.5,2.5,32,4.1,21.1,12.8,41.7,22.1,61.2,49.9,99.2,100.9,197.8,150.9,297,18.8,37.3,35.4,75.4,49.4,114.8,40.6,112.1,68.9,201.9,33.5,321.6-13.5,46.5-32.4,91.8-63,129.4-40.8,49.6-97.3,87.5-159.9,102.4-97.5,21.3-207.4-1.5-281.6-71.2-73.2-68.2-111.1-171.5-113.8-271.2-.3-81.9,25.8-163.8,66.9-234.1,12.6-21,26.8-40.8,42.5-59.6,15.6-18.6,32.2-36.8,51.7-51.5,5.2-3.7,28.6-21,32.9-14.2.8,2.2-.3,4.7-1,7-2.4,6.8-8.7,17.4-12.2,28.2-4.3,13.5-4.9,28.1-1.6,41.8,10.8,47.5,60.3,55.3,97.1,31,12.3-8.4,21.8-20.3,28.5-33.9v-.2ZM633.3,598c-78.2,0-152.5,42.7-195.3,105.1-10.4,15.6-23.9,37-24.9,54.6-.7,19.1,19.8,26.5,31,38.6,12.4,13,14.3,31.4,16.5,49,2.4,25.9,8.7,50.8,22.3,72.8,34.2,55.8,100.4,88.2,165.3,88.5,48.9.6,95.4-20.8,131.5-52.8,9.2-8.1,17-16.4,27-21.6,6.9-3.7,14.5-5.5,22.3-4.9,10.5.5,23.8,6.4,31.2,8.2,2.6.5,6.5,1.5,7.5-1.3-.5-14.4-34.5-38.4-30.7-57.5,3.4-21.8,57-30.4,69-47.6,5.1-10.4-27.6-11.7-35.3-14.8-6.7-1.9-13.3-5.1-18.4-9.8-7.2-6.6-10.8-14.9-13.5-24.8-18.1-102.6-98.9-184.2-205.1-181.5h-.3Z"/>
      <path class="cls-1" d="M573.8,713.1c14.8-3.5,28,8.8,37.6,19.8,11.1,12.6,24.2,31.3,43.2,25.7,19.1-6.1,30.7-26,48.8-34.3,18-8.7,33.8,5.5,29.2,25.1-2,8.4-6.8,15.3-13.3,22-11.8,12.8-32.8,25-29.3,45,5.6,23.5,33.4,37.9,39.1,60,2.9,10.1-.3,22.5-9.7,27.9-19.6,10.2-35.8-16.9-46.8-29.9-27.6-38.2-44.6-17.3-70.5,8.7-8.8,8.7-20.6,19-33.8,14.6-11.8-4-17.1-17.2-12.8-29.7,2.2-6.7,7-13.4,12.7-19.7,11.1-13.1,28.5-24.7,29.7-43.1.3-22.2-22.6-36.4-32.5-54.2-8.4-12.8-9.1-32.9,8.3-37.9h.2Z"/>
    </g>
  </g>
</svg>